<svg xmlns="http://www.w3.org/2000/svg" viewBox="0 0 88.715 24.028"><g fill="#ddd" aria-label="evan" font-family="Pacifico" font-size="192" font-weight="400" letter-spacing="0" style="line-height:1.25" word-spacing="0"><path d="M23.419 12.446q.66 0 1.016.61.406.61.406 1.676 0 2.032-.965 3.15-1.88 2.286-5.334 4.216-3.404 1.93-7.315 1.93-5.334 0-8.28-2.895Q0 18.237 0 13.208q0-3.505 1.473-6.502Q2.946 3.658 5.537 1.88 8.18.102 11.481.102q2.946 0 4.724 1.778 1.778 1.727 1.778 4.724 0 3.505-2.54 6.045-2.489 2.49-8.483 3.963 1.27 2.336 4.826 2.336 2.286 0 5.181-1.574 2.947-1.626 5.08-4.217.61-.711 1.372-.711zM10.617 5.08q-1.88 0-3.2 2.184-1.27 2.185-1.27 5.284v.101q2.997-.711 4.724-2.133 1.727-1.423 1.727-3.302 0-.966-.558-1.524-.508-.61-1.423-.61z" style="-inkscape-font-specification:Pacifico"/><path d="M46.149 8.331q.152-.05.508-.05.762 0 1.168.507.406.508.406 1.372 0 1.575-.61 2.49-.609.863-1.828 1.27-2.337.761-4.978.761-2.236 0-4.217-.61Q35.125 16.46 33.347 19q-2.032 2.896-3.505 3.963-1.473 1.066-3.353 1.066-2.083 0-3.302-1.625-1.168-1.626-1.473-5.131-.61-7.112-.61-12.446V3.048q.051-1.676.915-2.337.863-.66 2.59-.66 1.321 0 1.93.61.661.558.661 1.93 0 5.842.711 15.189 3.048-4.521 4.572-7.214-.762-1.473-.762-3.505 0-1.727.762-3.353.762-1.625 2.083-2.641Q35.887.05 37.563.05q1.474 0 2.388 1.067.914 1.016.914 2.997 0 2.286-1.219 5.232 1.93-.101 5.131-.762z" style="-inkscape-font-specification:Pacifico"/><path d="M50.071 24.028q-3.15 0-5.029-2.286-1.88-2.286-1.88-5.994 0-4.064 1.88-7.67 1.88-3.658 4.979-5.843Q53.17 0 56.675 0q1.118 0 1.474.457.406.407.66 1.524 1.067-.203 2.235-.203 2.49 0 2.49 1.778 0 1.067-.763 5.08-1.168 5.842-1.168 8.128 0 .762.356 1.22.406.456 1.016.456.965 0 2.336-1.219 1.372-1.27 3.709-4.064.61-.711 1.371-.711.66 0 1.016.61.407.61.407 1.676 0 2.032-.965 3.15-2.083 2.59-4.42 4.368-2.337 1.778-4.521 1.778-1.677 0-3.1-1.117-1.37-1.169-2.082-3.15-2.641 4.267-6.655 4.267zm1.83-5.13q1.117 0 2.133-1.321t1.473-3.505l1.88-9.348q-2.134.051-3.963 1.626-1.778 1.524-2.845 4.064-1.066 2.54-1.066 5.385 0 1.575.61 2.337.66.762 1.777.762z" style="-inkscape-font-specification:Pacifico"/><path d="M71.341 24.028q-1.93 0-2.743-2.032-.762-2.032-.762-6.502 0-6.604 1.88-12.548.457-1.473 1.473-2.133 1.067-.711 2.946-.711 1.016 0 1.423.254.406.254.406.965 0 .813-.762 3.657-.508 2.032-.813 3.556-.304 1.524-.508 3.76 1.677-4.37 3.76-7.112 2.082-2.744 4.064-3.912Q83.737.102 85.413.102q1.626 0 2.438.863.864.813.864 2.439 0 1.32-.559 4.978-.508 3.099-.813 5.893-.304 2.743-.304 6.147 0 1.93-.813 2.794-.762.812-2.54.812-1.677 0-2.439-.863-.762-.864-.762-2.591 0-2.032.712-6.706.61-4.064.61-5.181 0-.813-.56-.813-.66 0-1.88 1.727-1.168 1.677-2.438 4.47-1.219 2.795-1.98 5.893-.56 2.388-1.322 3.252-.71.812-2.286.812z" style="-inkscape-font-specification:Pacifico"/></g></svg>
