<svg xmlns="http://www.w3.org/2000/svg" viewBox="0 0 407.425 354.19"><defs><clipPath id="a"><path d="M0 0h306v266H0z"/></clipPath></defs><g clip-path="url(#a)" transform="matrix(1.33333 0 0 -1.33333 0 354.667)"><g fill="#1e64c8"><path d="M57.148 219.98h6.934v-45.02h-6.934zM43.281 219.98h6.934v-45.02h-6.934zM29.41 219.98h6.934v-45.02H29.41zM15.543 219.98h6.934v-45.02h-6.934zM71.016 219.98h6.934v-45.02h-6.934zM84.887 219.98h6.934v-45.02h-6.934zM98.758 219.98h6.934v-45.02h-6.934zM8.441 168.023h104.352v-6.938H8.441zM105.691 226.914H15.543l-6.934 6.934h104.02l-6.938-6.934M1.508 154.156h118.219v-6.938H1.508zM119.727 245.07L60.617 266 1.508 245.07v-7.367l59.109 20.93 59.11-20.93v7.367M58.895 92.703H43.957V70.449H37.02v49.035h6.937V98.59h14.938v20.894h6.937V70.449h-6.937v22.254M210.863 45.266c3.059.011 5.949-.996 7.274-2.036v6.25c-1.325.813-4.582 1.719-7.887 1.719-9.199 0-14.266-5.23-14.266-12.824 0-6.332 2.68-9.375 7-13.102l3.95-3.406c3.257-2.726 5.277-4.828 5.277-8.91 0-4.766-3.156-6.656-7.883-6.656-3.586 0-6.558.996-8.273 2.179V2.121c1.507-.867 4.656-1.762 8.89-1.754 9.188.024 14.254 5.238 14.266 12.824.004 6.329-2.688 9.375-7 13.098l-3.945 3.414c-3.27 2.797-5.293 4.813-5.282 8.891.012 4.789 3.137 6.66 7.879 6.672M168.25 44.414V27.133h3.699c5.426 0 9.055 1.14 9.055 8.679 0 7.469-3.629 8.602-9.055 8.602zm-6.938 5.883h11.317c9.051 0 15.535-3.395 15.535-14.485 0-7.769-3.769-11.539-8.523-13.273l10.414-21.273h-7.922l-9.211 19.988h-4.672V1.266h-6.938v49.031M1.508 16.051v34.242h6.937V15.742c0-7.238 2.493-9.344 7.543-9.344 5.055 0 7.543 2.106 7.543 9.344v34.551h6.942V16.051C30.473 4.883 25.797.359 15.988.359c-9.953 0-14.48 4.375-14.48 15.692M39.449 50.293h7.996l15.465-39.07c-.531 4-.984 8.668-.984 13.047v26.023h6.636V1.266h-7.996L44.953 40.484c.606-3.992 1.133-8.746 1.133-13.203V1.266h-6.637v49.027M78.391 50.293h6.938V1.266h-6.938zM91.781 50.293h7.239l6.183-25.496c.906-3.848 2.035-10.332 2.715-15.465.684 5.133 1.812 11.617 2.867 15.465l6.113 25.496h7.012L111.465 1.266h-7.238L91.781 50.293M130.359 50.293h22.934V44.41h-15.992V29.395h12.902V23.59h-12.902V7.141h15.992V1.266h-22.934v49.027M227.445 50.293h6.941V1.266h-6.941zM0 94.961c0 19.312 5.129 25.43 17.879 25.43 3.613 0 7.461-.985 9.125-1.969v-6.406c-1.813 1.05-5.285 2.187-8.602 2.187-8.148 0-11.238-3.019-11.238-19.242 0-16.059 2.188-19.379 9.277-19.379 2.188 0 4 .301 5.356.68v16.371h-7.246v5.879h14.187V72.035c-1.433-.906-7.168-2.492-12.222-2.492C3.242 69.543 0 76.484 0 94.961M75.66 119.484h22.934v-5.886H82.598V98.59H95.5v-5.809H82.598V76.336h15.996v-5.887H75.66v49.035M106.605 119.484h7.997l15.464-39.074c-.527 4-.98 8.676-.98 13.051v26.023h6.637V70.449h-7.996l-15.618 39.227c.606-3.996 1.137-8.746 1.137-13.199V70.449h-6.641v49.035M142.078 119.484h28.137v-5.886h-10.637V70.449h-6.941v43.149h-10.559v5.886M285.273 21.629l-13.425 28.664h7.617l5.808-13.199c1.36-3.164 2.645-6.563 3.473-9.582.906 3.019 2.266 6.418 3.621 9.582l5.805 13.199h7.398l-13.351-28.664V1.266h-6.946v20.363M240.977 50.293h28.128V44.41h-10.628V1.266h-6.942V44.41h-10.558v5.883"/></g></g></svg>
