<svg xmlns="http://www.w3.org/2000/svg" viewBox="0 0 33.113 31.205"><circle cx="15.299" cy="15.299" r="15.299" fill="#eceff1"/><path fill="#1e64c8" d="M11.609 5.488s-3.374-.602-5.592.794c-1.357.856-2.603 2.749-2.121 6.124.451 3.159 1.452 6.503.952 8.503-.379 1.516-1.354 3.05-1.625 3.812-.277.777 1.359 3.659 6.312 5.438 4.875 1.75 8.894.924 10.438.25 1.01-.441 1.518-2.143.024-7.351-.855-2.979-1.784-5.062-2.458-5.784-.676-.723-4.675-3.568-5.399-4.532-.724-.964.963-7.062-.531-7.254z"/><path fill="#1e64c8" d="M11.72 5.553s-.964-.883-1.798-1.031c-.83-.146-1.142.036-1.142.036s.442.181.625.306c.267.179.337.364.337.364s-.614-.302-1.009-.34c-.396-.037-.938.037-.938.037s.499.257.648.412c.07.072-.208.046-.526-.015-.37-.069-.911.129-.911.128 0 0 .396.23.476.379.081.149-.214.404-.214.404zm5.607 12.106s.324-.666.5-.354c.292.521.536.947.833 1.25.591.599.531.744.531.744s-.07-.012-.266-.094c-.288-.126-.297-.031-.297-.031s.278.232.537.538c.258.303.307.665.307.665s-.112-.049-.312-.094c-.091-.021.053.165.229.438.271.417.349.609.349.609s-.063-.028-.219-.016c-.159.009-.125.391-.125.391z"/><path fill="#fff" d="M17.298 15.687c-.869-1.951-1.193-2.548-1.193-2.548s-2.73-2.013-2.737-2.011c-1.636.452-5.394 1.258-6.926 1.438.167 1.2.722 2.705 1.25 3.938 1.519 3.543 6.641 7.243 9.027 6.013 2.386-1.23 1.445-4.877.579-6.83z"/><path fill="#eceff1" d="M11.657 5.415c-2.465.213-4.213 1.064-4.871 2.025-.868 1.265-.653 2.97-.344 5.219 3.146-.011 5.046-.543 7.072-1.098.303-.083.184-1.346.167-1.494-.13-1.28-1.204-4.967-2.024-4.652z"/><path fill="#f1a42b" d="M28.776 10.447c-4.319-.656-4.964-.446-8.098-.253-3.167.195-7.253 1.329-7.286 1.247.227 1.052.789 1.99 2.854 1.927.052-.004 1.601.104 4.07-.208 2.51-.318 5.282-1.053 7.219-1.125 3.034-.113 5.578.419 5.578.419l-.041-.017c-.662-.834-2.227-1.676-4.296-1.99z"/><path fill="#ffd200" d="M25.16 5.284c-3.969-.688-5.781-.594-8.469-.469-2.097.098-3.781.406-5.106.624.975 1.871 1.537 3.971 1.668 5.251.023.23.083.724.188.906 2.257-.621 4.062-.969 7.279-1.216 3.13-.24 4.439-.378 8.03.289 2.058.382 3.44 1.06 4.321 1.767l.041.017S32.24 6.51 25.16 5.284z"/><path fill="#1e64c8" d="M8.77 10.971s-1.469-2.641.362-3.393c1.79-.735 2.457 1.687 2.528 2.018.073.329-.599.6-.781.453-.07-.059-.335-1.971-1.344-1.578-.842.331.058 2.081.072 2.255.019.256-.729.505-.837.245z"/></svg>
